<?xml version="1.0" encoding="utf-8"?>
<!-- Generator: Adobe Illustrator 24.1.3, SVG Export Plug-In . SVG Version: 6.00 Build 0)  -->
<svg version="1.1" id="Capa_1" xmlns="http://www.w3.org/2000/svg" xmlns:xlink="http://www.w3.org/1999/xlink" x="0px" y="0px"
	 viewBox="0 0 512 512" style="enable-background:new 0 0 512 512;" xml:space="preserve">
<style type="text/css">
	.st0{fill:#6EA2FA;}
</style>
<g>
	<path class="st0" d="M90.7,241.8C63.7,247.3,0,271.3,0,375c0,8.3,6.7,15,15,15s15-6.7,15-15c0-49.9,17-76.2,35.3-90
		c-2.8,9.5-4.3,19.5-4.3,30v182c0,8.3,6.7,15,15,15h59.6c8.1,0,15-6.2,15.4-14.3c0.4-8.6-6.5-15.7-15-15.7h-9.3l20.5-62.8
		c0.7-0.1,1.4-0.2,2.1-0.4c27.2-4.9,46.7-29,46.7-56.5l0-17.3c0-8.5,7.1-15.4,15.7-15c8.1,0.4,14.3,7.3,14.3,15.4V390h48.3l-45-180
		H166C136.5,210,109.8,222.2,90.7,241.8L90.7,241.8z"/>
	<path class="st0" d="M260.2,209.8l45,180.2H331v107c0,8.3,6.7,15,15,15h59.6c8.1,0,15-6.2,15.4-14.3c0.4-8.6-6.5-15.7-15-15.7
		h-10.9l25.4-103.4c0.3-1.2,0.4-2.4,0.4-3.6v-92l-131.7-87.8C282,203.3,271.7,208.8,260.2,209.8L260.2,209.8z"/>
	<path class="st0" d="M497,150h-31c-8.2,0-15-6.6-15-14.8c0.1-24.9-20.1-45.2-45-45.2h-15V75c0-8.2-6.6-15-14.9-15
		c-41.4-0.1-75.1,33.6-75.1,75c0,0,0,31.3,0,31.9l120,80v-7h46c24.9,0,45-20.1,45-45v-30C512,156.7,505.3,150,497,150L497,150z"/>
	<path class="st0" d="M148,6c-5-6.6-14.4-8-21-3s-8,14.4-3,21l88.2,117.6l17.1,68.4H256c1.4,0,2.8-0.1,4.2-0.2L250,169l39.4,26.2
		c6.9-7.5,11.2-17.4,11.6-28.3l-64.5-43L148,6z"/>
</g>
</svg>
