<?xml version="1.0" encoding="utf-8"?>
<!-- Generator: Adobe Illustrator 24.1.3, SVG Export Plug-In . SVG Version: 6.00 Build 0)  -->
<svg version="1.1" id="bold" xmlns="http://www.w3.org/2000/svg" xmlns:xlink="http://www.w3.org/1999/xlink" x="0px" y="0px"
	 viewBox="0 0 512 512" style="enable-background:new 0 0 512 512;" xml:space="preserve">
<style type="text/css">
	.st0{fill:#6EA2FA;}
</style>
<path class="st0" d="M370.1,246.6c-14.1,31.6-15.4,63.4-3.8,94.7h-76.2c-0.2-0.6-0.4-1.5-0.4-2.1c-2.6-16.9-1.5-33.5,4.5-50.1
	s14.9-33.7,20.3-52.1c5.3-18.1-0.2-36.3-5.1-55.7c-1.3,18.6-5.5,36.5-13.2,52.9c-7.3,16.6-18.1,31.1-27.3,48.4
	c-9.2,17.3-13.9,38.2-13.9,58v0.6h-125c7-50.3,26.5-97.5,58.2-140.2l-62.9,5.3c-10,0.9-20.3-2.8-27.7-9.6S85.8,180.3,85.8,170v-18.3
	c0-25.4,17.1-47.8,41.4-54.8l107.1-33.9V16c0-6,3.4-11.5,8.7-14.3c5.5-2.8,11.9-2.1,16.9,1.5l47.6,35.6
	C376.1,81.7,403.6,171.3,370.1,246.6L370.1,246.6z"/>
<path class="st0" d="M286.3,397.4l-5.5,6.2c-4.3-2.6-6-4.3-7.7-6.2H286.3z"/>
<path class="st0" d="M410.7,458.7H101.3c-8.8,0-16-7.2-16-16V416c0-20.1,16-42.7,37.3-42.7h266.7c21.4,0,37.3,22.5,37.3,42.7v26.7
	C426.7,451.5,419.5,458.7,410.7,458.7z"/>
<path class="st0" d="M453.3,512H58.7c-8.8,0-16-7.2-16-16v-32c0-20.6,16.7-37.3,37.3-37.3h352c20.6,0,37.3,16.7,37.3,37.3v32
	C469.3,504.8,462.2,512,453.3,512z"/>
</svg>
