<?xml version="1.0" encoding="utf-8"?>
<!-- Generator: Adobe Illustrator 24.1.3, SVG Export Plug-In . SVG Version: 6.00 Build 0)  -->
<svg version="1.1" id="Capa_1" xmlns="http://www.w3.org/2000/svg" xmlns:xlink="http://www.w3.org/1999/xlink" x="0px" y="0px"
	 viewBox="0 0 512 512" style="enable-background:new 0 0 512 512;" xml:space="preserve">
<style type="text/css">
	.st0{fill:#6EA2FA;}
</style>
<g>
	<path class="st0" d="M403,264.7c44.3,0,83.8,21,109,53.5v-70.7l-92.5-94.9L287.6,281.9L210,211.4L13.1,412.8l252-0.3
		c-0.2-3.2-0.4-6.5-0.4-9.8C264.8,326.6,326.8,264.7,403,264.7L403,264.7z"/>
	<path class="st0" d="M286.9,240.9l133.3-130.7l91.9,94.6V92L414.4,0L302.6,106.7L247,49.6L132.5,164.1l-46.6-47.6L0,209.1v174.4
		l208.7-213.6L286.9,240.9z"/>
	<path class="st0" d="M403,293.7c-60.2,0-109.2,49-109.2,109.2S342.8,512,403,512c60.1,0,109-49,109-109.2
		C512,342.6,463.1,293.7,403,293.7L403,293.7z M390.6,445.6l-39.7-39.7l21.1-21.1l18.6,18.6l43.2-43.2l21.1,21.1L390.6,445.6z"/>
</g>
</svg>
