<?xml version="1.0" encoding="utf-8"?>
<!-- Generator: Adobe Illustrator 24.1.3, SVG Export Plug-In . SVG Version: 6.00 Build 0)  -->
<svg version="1.1" id="Capa_1" xmlns="http://www.w3.org/2000/svg" xmlns:xlink="http://www.w3.org/1999/xlink" x="0px" y="0px"
	 viewBox="0 0 35.3 35.3" style="enable-background:new 0 0 35.3 35.3;" xml:space="preserve">
<style type="text/css">
	.st0{fill:#6EA2FA;}
</style>
<g>
	<circle class="st0" cx="13.2" cy="6.7" r="1"/>
	<path class="st0" d="M10.3,5.8c-0.5,0-1,0.4-1,1c0,0.5,0.4,1,1,1c0.5,0,1-0.4,1-1C11.2,6.2,10.8,5.8,10.3,5.8z"/>
	<path class="st0" d="M16.2,5.8c-0.5,0-1,0.4-1,1c0,0.5,0.4,1,1,1c0.5,0,1-0.4,1-1C17.1,6.2,16.7,5.8,16.2,5.8z"/>
	<rect x="18.5" y="6.3" class="st0" width="13.6" height="1"/>
	<path class="st0" d="M33.3,3.2H9.9C8.9,3.2,8,4,8,5.1v14c0.5,0,1.2,0,1.9,0V8h23.4v16.5h-5.8c0.4,0.8,0.6,1.5,0.6,1.5
		c-0.1,0.2-0.3,0.3-0.4,0.5h5.7c1.1,0,1.9-0.9,1.9-1.9V5.1C35.3,4,34.4,3.2,33.3,3.2z M11.4,6.6c-0.5,0-1-0.4-1-1c0-0.5,0.4-1,1-1
		c0.5,0,1,0.4,1,1C12.4,6.1,11.9,6.6,11.4,6.6z M14.3,6.6c-0.5,0-1-0.4-1-1c0-0.5,0.4-1,1-1c0.5,0,1,0.4,1,1
		C15.3,6.1,14.9,6.6,14.3,6.6z M17.3,6.6c-0.5,0-1-0.4-1-1c0-0.5,0.4-1,1-1s1,0.4,1,1C18.3,6.1,17.9,6.6,17.3,6.6z"/>
	<path class="st0" d="M26.4,25.7c-0.3-0.7-0.8-1.5-1.2-2c0,0-0.5-0.4-0.8-0.5c-0.2-0.1-0.2-0.1-0.4,0c-0.7,0.1-1.5,1.5-2.9,2.5H14
		c-0.4-0.4-0.8-0.8-1.2-1.3h3.9c0,0,1.1,0.1,1.1-0.8c0-0.9,0-2.2,0-2.2s0.1-1.1-1.1-1.1c-0.4,0-2.5,0-4.8,0h-0.1H11
		c-0.8,0-1.5,0-2.2,0c-0.7,0-1.4,0-1.9,0c-0.8,0-1.4,0-1.4,0v9.5c0,0,7.6,2.4,10.3,2.4c0,0,6.3,0.3,10.7-4.4
		c0.1-0.2,0.3-0.3,0.4-0.5C27,27.2,26.7,26.5,26.4,25.7z"/>
	<rect y="19" class="st0" width="3.9" height="13.1"/>
</g>
</svg>
