<?xml version="1.0" encoding="utf-8"?>
<!-- Generator: Adobe Illustrator 24.1.3, SVG Export Plug-In . SVG Version: 6.00 Build 0)  -->
<svg version="1.1" id="Capa_1" xmlns="http://www.w3.org/2000/svg" xmlns:xlink="http://www.w3.org/1999/xlink" x="0px" y="0px"
	 viewBox="0 0 567.5 567.5" style="enable-background:new 0 0 567.5 567.5;" xml:space="preserve">
<style type="text/css">
	.st0{fill:#6EA2FA;}
</style>
<g>
	<g>
		<polygon class="st0" points="297.5,449.6 301.5,400.7 190.6,400.7 194.6,449.6 		"/>
		<polygon class="st0" points="318.4,385.4 419.3,385.4 440.4,302.8 325,302.8 		"/>
		<polygon class="st0" points="76.9,400.7 89.6,449.6 179,449.6 175,400.7 		"/>
		<polygon class="st0" points="415.2,400.7 317.1,400.7 313.1,449.6 402.5,449.6 		"/>
		<path class="st0" d="M495.1,155.9c-5.1,0-9.4,1.8-12.7,4c-2,1.1-3.9,2.7-5.8,4.6c-21.1,21.1-42.2,42.4-63.3,63.5
			c-2.3,2.3-4,4.4-5.1,7.4h-77.6l-4.3,52h118.2l8.9-33c16.8-16.9,33.7-34.3,50.5-49.6h40.6c30.6,0,30.6-49,0-49L495.1,155.9
			L495.1,155.9z"/>
		<polygon class="st0" points="181.4,287.5 310.7,287.5 315,235.4 177,235.4 		"/>
		<polygon class="st0" points="173.7,385.4 167,302.8 51.7,302.8 72.8,385.4 		"/>
		<polygon class="st0" points="33.8,235.4 47.6,287.5 165.8,287.5 161.4,235.4 		"/>
		<polygon class="st0" points="309.4,302.8 182.7,302.8 189.3,385.4 302.7,385.4 		"/>
		<circle class="st0" cx="136.8" cy="504.7" r="41.2"/>
		<circle class="st0" cx="355.3" cy="504.7" r="41.2"/>
		<path class="st0" d="M141.5,153.4l-21.4,20.9l152.9,33.4L243.7,54l-21.4,20.9C117.7-32.6,0,55.9,0,55.9S56.5,66.1,141.5,153.4z"/>
	</g>
</g>
</svg>
