<?xml version="1.0" encoding="utf-8"?>
<!-- Generator: Adobe Illustrator 24.1.3, SVG Export Plug-In . SVG Version: 6.00 Build 0)  -->
<svg version="1.1" id="Layer_1" xmlns="http://www.w3.org/2000/svg" xmlns:xlink="http://www.w3.org/1999/xlink" x="0px" y="0px"
	 viewBox="0 0 512 512" style="enable-background:new 0 0 512 512;" xml:space="preserve">
<style type="text/css">
	.st0{fill:#6EA2FA;}
</style>
<g id="copyright">
	<path class="st0" d="M133.4,155.5c-0.7-1.3-1.7-2.4-2.9-3.3L93,189.8l34.4,3.8c3.7,0.4,6.6,3.3,7,7l3.8,34.4l37.5-37.6
		c-0.9-1.2-2.1-2.2-3.4-2.9c-3.6-0.6-7.2-0.5-10.7,0.2c-8.2,0.9-17.5,1.9-23.9-4.5s-5.4-15.7-4.5-23.9
		C134,162.8,134.1,159.1,133.4,155.5z"/>
	<path class="st0" d="M192,192c2.1,2.6,6.3,8,8,8s5.9-5.4,8-8c3.4-5.2,8-9.4,13.4-12.2c6-1.9,12.4-2.2,18.6-1
		c3.6,0.7,7.3,0.7,10.9,0.1c0.6-3.6,0.5-7.2-0.2-10.8c-1.3-6.2-0.9-12.6,1-18.6c2.9-5.4,7.1-10.1,12.2-13.4c2.6-2.1,8-6.3,8-8
		s-5.4-5.9-8-8c-5.2-3.4-9.4-8-12.2-13.4c-1.9-6-2.2-12.4-1-18.6c0.7-3.6,0.7-7.3,0.1-10.9c-3.6-0.6-7.2-0.5-10.8,0.2
		c-6.2,1.3-12.6,0.9-18.6-1C216,73.4,211.4,69.2,208,64c-2.1-2.6-6.3-8-8-8s-5.9,5.4-8,8c-3.4,5.2-8,9.4-13.4,12.2
		c-6,1.9-12.4,2.2-18.6,1c-3.6-0.7-7.3-0.7-10.9-0.1c-0.6,3.6-0.5,7.2,0.2,10.8c1.3,6.2,0.9,12.6-1,18.6
		c-2.9,5.4-7.1,10.1-12.2,13.4c-2.6,2.1-8,6.3-8,8c0,1.7,5.4,5.9,8,8c5.2,3.4,9.4,8,12.2,13.4c1.9,6,2.2,12.4,1,18.6
		c-0.7,3.6-0.7,7.3-0.1,10.9c3.6,0.6,7.2,0.5,10.8-0.2c3-0.4,6.1-0.6,9.1-0.7c3.3-0.1,6.5,0.5,9.5,1.7
		C184,182.6,188.6,186.8,192,192z M160,128c0-22.1,17.9-40,40-40s40,17.9,40,40s-17.9,40-40,40C177.9,168,160,150.1,160,128z"/>
	<polygon class="st0" points="328,43.3 328,72 356.7,72 	"/>
	<path class="st0" d="M318,416H64v-16h237c-4.7-5-9.1-10.4-13.1-16H64v-16h213.7c-2.9-5.2-5.6-10.5-7.9-16H64v-16h199.8
		c-1.6-5.3-3-10.6-4.2-16H64v-16h193c-0.7-6.1-1-12.2-1-18.3v-33.8l-42.2-42.2c-6.5,7.6-18,8.5-25.6,1.9c-0.7-0.6-1.3-1.2-1.9-1.9
		l-48.5,48.5c-1.5,1.5-3.6,2.3-5.7,2.3c-0.9,0-1.8-0.2-2.6-0.5c-2.9-1-5-3.6-5.3-6.6l-5-44.6l-44.6-5c-3.1-0.3-5.6-2.4-6.6-5.3
		c-1-2.9-0.3-6.1,1.8-8.3l48.5-48.5c-3.8-3.6-6.1-8.5-6.3-13.8c0-9.4,7.8-15.6,14.1-20.6c2.8-1.9,5.3-4.3,7.4-7
		c0.6-3.6,0.6-7.2-0.2-10.7c-0.9-8.2-1.9-17.5,4.5-23.9s15.7-5.4,23.9-4.5c3.6,0.7,7.2,0.8,10.8,0.2c2.7-2.1,5.1-4.5,7-7.4
		c5-6.2,11.1-14.1,20.6-14.1s15.6,7.8,20.6,14.1c1.9,2.8,4.3,5.3,7,7.4c3.6,0.6,7.2,0.6,10.7-0.2c8.2-0.9,17.5-1.9,23.9,4.5
		s5.4,15.7,4.5,23.9c-0.7,3.6-0.8,7.2-0.2,10.8c2.1,2.7,4.5,5.1,7.4,7c6.2,5,14.1,11.1,14.1,20.6c-0.2,5.2-2.5,10.2-6.3,13.8l35,35
		l51.4-22V88h-48c-4.4,0-8-3.6-8-8V32H40c-4.4,0-8,3.6-8,8v432c0,4.4,3.6,8,8,8h320c4.4,0,8-3.6,8-8v-19.9l-41.7-29.7
		C323.5,420.3,320.7,418.2,318,416z"/>
	<path class="st0" d="M256,208c0-3.2,1.9-6.1,4.9-7.4l39.9-17.1l-31.4-31.3c-1.2,0.9-2.2,2.1-2.9,3.4c-0.6,3.6-0.6,7.2,0.2,10.7
		c0.9,8.2,1.9,17.5-4.5,23.9s-15.8,5.4-23.9,4.5c-3.6-0.7-7.2-0.8-10.8-0.2c-1.3,0.7-2.4,1.7-3.3,2.9l31.8,31.8V208z"/>
	<circle class="st0" cx="200" cy="128" r="24"/>
	<path class="st0" d="M272,213.3v72.4c0,49.1,23.8,95.1,63.7,123.7l40.3,28.8l40.3-28.8c39.9-28.5,63.6-74.6,63.7-123.7v-72.4
		l-104-44.6L272,213.3z M459,224.6c3,1.2,5,4.2,5,7.4v50.5c0.1,41.3-18.7,80.5-51,106.2l-32,25.6c-2.9,2.3-7.1,2.3-10,0l-32-25.6
		c-32.3-25.7-51.1-64.9-51-106.2V232c0-3.3,2-6.2,5-7.4l80-32c1.9-0.8,4-0.8,5.9,0L459,224.6z"/>
	<path class="st0" d="M304,237.4v45.1c-0.1,36.5,16.5,71,45,93.7l27,21.6l27-21.6c28.5-22.7,45.1-57.2,45-93.7v-45.1l-72-28.8
		L304,237.4z M422,269.3l-56,64c-1.5,1.7-3.5,2.7-5.8,2.7H360c-2.1,0-4.2-0.8-5.7-2.3l-24-24l11.3-11.3l18,18l50.4-57.6L422,269.3z"
		/>
</g>
</svg>
