<?xml version="1.0" encoding="utf-8"?>
<!-- Generator: Adobe Illustrator 24.3.0, SVG Export Plug-In . SVG Version: 6.00 Build 0)  -->
<svg version="1.1" id="Layer_1" xmlns="http://www.w3.org/2000/svg" xmlns:xlink="http://www.w3.org/1999/xlink" x="0px" y="0px"
	 viewBox="0 0 512 512" style="enable-background:new 0 0 512 512;" xml:space="preserve">
<style type="text/css">
	.st0{fill:#6EA2FA;}
</style>
<g>
	<path class="st0" d="M311.3,289.8c-3.3,3.8-6.7,7.6-10.4,11.2c-3.5,3.5-7.2,6.9-10.9,10.1l27.3,27.3l21.3-21.3L311.3,289.8z"/>
	<path class="st0" d="M279.7,48c-32-32-73.9-48-115.8-48S80,16,48,48c-64,64-64,167.8,0,231.8c32,32,73.9,48,115.8,48
		s83.9-16,115.8-48C343.7,215.8,343.7,112,279.7,48z M123,188.2c0,15.9-13.2,29.7-29.1,29.7H72.1c-15.9,0-28.1-13.8-28.1-29.7v-0.3
		c0-8.3,6.4-14.6,14.7-14.6c8,0,14.2,6.6,14.7,14.6H93v-4.1l-31.3-13C50.8,166.4,44,155.9,44,144.2v-4.7c0-15.9,12.2-28.6,28.1-28.6
		h21.8c15.9,0,28.8,12.8,28.8,28.7c0,8.3-6.7,15.1-15,15.1c-7.9,0-14.4-5.8-15-13.8H74v2.4l31.3,13c10.8,4.5,17.7,14.9,17.7,26.7
		V188.2z M175.4,149.9c8.3,0,15,6.7,15,15s-6.7,15-15,15H163v8h22.5c8.3,0,15,6.7,15,15s-6.7,15-15,15h-38.1
		c-8.3,0-14.4-7.6-14.4-15.9v-76.3c0-8.3,6.1-14.8,14.4-14.8h38.1c8.3,0,15,6.7,15,15s-6.7,15-15,15H163v9H175.4z M284,201.9
		c0,8.3-6.7,15-15,15H226c-8.3,0-15-6.7-15-15V126c0-8.3,6.7-15,15-15H269c8.3,0,15,6.7,15,15V201.9z"/>
	<path class="st0" d="M241,140.9h13v47h-13V140.9z"/>
	<path class="st0" d="M389.7,331.3c-3.1-3.1-7.2-4.7-11.3-4.7c-4.1,0-8.2,1.6-11.3,4.7l-35.6,35.6c-6.2,6.2-6.2,16.4,0,22.6L355,413
		l58.2-58.2L389.7,331.3z"/>
	<path class="st0" d="M500,441.6l-65.5-65.5l-58.2,58.2l65.5,65.5c8,8,18.6,12.1,29.1,12.1c10.5,0,21.1-4,29.1-12.1
		C516,483.7,516,457.7,500,441.6z"/>
</g>
</svg>
