<svg height="512pt" viewBox="0 0 512 512" width="512pt" xmlns="http://www.w3.org/2000/svg"><g fill="#272525"><path d="m311.308594 289.839844c-3.289063 3.84375-6.738282 7.578125-10.351563 11.191406-3.519531 3.523438-7.15625 6.894531-10.898437 10.109375l27.335937 27.34375 21.273438-21.277344zm0 0"/><path d="m279.679688 48c-31.992188-32-73.917969-48-115.847657-48-41.929687 0-83.855469 16-115.847656 48-63.980469 63.996094-63.980469 167.761719 0 231.757812 31.992187 32 73.917969 48 115.847656 48 41.929688 0 83.855469-16 115.847657-48 63.980468-63.996093 63.980468-167.761718 0-231.757812zm-156.679688 140.242188c0 15.90625-13.183594 29.6875-29.085938 29.6875h-21.777343c-15.898438 0-28.136719-13.78125-28.136719-29.6875v-.3125c0-8.3125 6.386719-14.578126 14.695312-14.578126 7.996094 0 14.183594 6.578126 14.664063 14.578126h19.640625v-4.070313l-31.328125-12.984375c-10.847656-4.472656-17.671875-14.9375-17.671875-26.667969v-4.691406c0-15.90625 12.238281-28.585937 28.136719-28.585937h21.78125c15.902343 0 28.835937 12.808593 28.835937 28.714843 0 8.308594-6.734375 15.0625-15.042968 15.0625-7.890626 0-14.359376-5.777343-14.996094-13.777343h-18.714844v2.441406l31.332031 12.988281c10.84375 4.46875 17.667969 14.933594 17.667969 26.667969zm52.382812-38.3125c8.308594 0 15.042969 6.691406 15.042969 15 0 8.308593-6.734375 15-15.042969 15h-12.382812v8h22.476562c8.308594 0 15.042969 6.691406 15.042969 15 0 8.308593-6.734375 15-15.042969 15h-38.101562c-8.308594 0-14.375-7.578126-14.375-15.890626v-76.320312c0-8.3125 6.066406-14.789062 14.375-14.789062h38.101562c8.308594 0 15.042969 6.691406 15.042969 15 0 8.308593-6.734375 15-15.042969 15h-22.476562v9zm108.617188 51.953124c0 8.308594-6.734375 15.046876-15.042969 15.046876h-42.914062c-8.308594 0-15.042969-6.738282-15.042969-15.046876v-75.910156c0-8.308594 6.734375-15.042968 15.042969-15.042968h42.914062c8.308594 0 15.042969 6.734374 15.042969 15.042968zm0 0"/><path d="m241 140.929688h13v47h-13zm0 0"/><path d="m389.695312 331.34375c-3.125-3.125-7.214843-4.6875-11.308593-4.6875-4.089844 0-8.183594 1.5625-11.304688 4.6875l-35.558593 35.566406c-6.238282 6.242188-6.238282 16.363282 0 22.605469l23.492187 23.5 58.164063-58.179687zm0 0"/><path d="m499.957031 441.644531-65.503906-65.527343-58.164063 58.179687 65.484376 65.507813c8.035156 8.035156 18.5625 12.050781 29.09375 12.050781 10.527343 0 21.058593-4.015625 29.089843-12.050781 16.058594-16.0625 16.058594-42.097657 0-58.160157zm0 0"/></g></svg>