<?xml version="1.0" encoding="utf-8"?>
<!-- Generator: Adobe Illustrator 24.3.0, SVG Export Plug-In . SVG Version: 6.00 Build 0)  -->
<svg version="1.1" id="Layer_5" xmlns="http://www.w3.org/2000/svg" xmlns:xlink="http://www.w3.org/1999/xlink" x="0px" y="0px"
	 viewBox="0 0 512 512" style="enable-background:new 0 0 512 512;" xml:space="preserve">
<style type="text/css">
	.st0{fill:#6EA2FA;}
</style>
<g>
	<path class="st0" d="M175.7,408c-0.9,11.7-5.1,22.8-11.9,32h120.5c-6.9-9.2-11-20.3-11.9-32H175.7z"/>
	<path class="st0" d="M344,456H104c-4.4,0-8,3.6-8,8v16c0,4.4,3.6,8,8,8h240c4.4,0,8-3.6,8-8v-16C352,459.6,348.4,456,344,456z"/>
	<path class="st0" d="M40,328V136c0-8.8,7.2-16,16-16h48c-10.4,0-19.2-6.7-22.5-16H48c-13.2,0-24,10.8-24,24v240
		c0,13.2,10.8,24,24,24h344v-48H56C47.2,344,40,336.8,40,328z M120,360h16v16h-16V360z M88,360h16v16H88V360z M72,376H56v-16h16V376
		z"/>
	<path class="st0" d="M168,48c0-13.2-10.8-24-24-24s-24,10.8-24,24v24h48V48z"/>
	<path class="st0" d="M104,104h80c4.4,0,8-3.6,8-8s-3.6-8-8-8h-80c-4.4,0-8,3.6-8,8S99.6,104,104,104z"/>
	<path class="st0" d="M408,264h32v112h-32V264z"/>
	<path class="st0" d="M483.1,248l-30.6-61.3c-1.7-3.4-7.2-3.4-8.8,0L412.9,248H483.1z"/>
	<path class="st0" d="M168,152v-32h-48v102.1l19.6,39.2c1.7,3.4,7.2,3.4,8.8,0l14.6-29.3H136v-16h32v-16h-16v-16h16v-16h-32v-16H168
		z"/>
	<path class="st0" d="M408,448c0,22.1,17.9,40,40,40s40-17.9,40-40v-24h-80V448z"/>
	<path class="st0" d="M184,225.9l-21.3,42.5c-0.7,1.3-1.6,2.4-2.5,3.6H240c8.8,0,16,7.2,16,16s-7.2,16-16,16H96c-8.8,0-16-7.2-16-16
		s7.2-16,16-16h31.7c-0.9-1.1-1.8-2.2-2.5-3.6L104,225.9V136H56v192h336v-72v-1.9V136H184V225.9z M344,312h-64v-16h64V312z M376,312
		h-16v-16h16V312z M376,280h-96v-16h96V280z M256,160h112v80H256V160z"/>
	<path class="st0" d="M456,264h32v112h-32V264z"/>
	<path class="st0" d="M408,392h80v16h-80V392z"/>
	<path class="st0" d="M408,222.1l16-32V128c0-13.2-10.8-24-24-24H206.5c-3.3,9.3-12.1,16-22.5,16h208c8.8,0,16,7.2,16,16V222.1z"/>
	<path class="st0" d="M340.4,176.8L312,191.1l-28.4-14.2l-7.2,14.3l17.7,8.8l-17.7,8.8l7.2,14.3l28.4-14.2l28.4,14.2l7.2-14.3
		l-17.7-8.8l17.7-8.8L340.4,176.8z"/>
</g>
</svg>
