<?xml version="1.0" encoding="utf-8"?>
<!-- Generator: Adobe Illustrator 24.3.0, SVG Export Plug-In . SVG Version: 6.00 Build 0)  -->
<svg version="1.1" id="Layer_1" xmlns="http://www.w3.org/2000/svg" xmlns:xlink="http://www.w3.org/1999/xlink" x="0px" y="0px"
	 viewBox="0 0 512 512" style="enable-background:new 0 0 512 512;" xml:space="preserve">
<style type="text/css">
	.st0{fill:#6EA2FA;}
</style>
<g id="Out_line">
	<path class="st0" d="M378.5,295.6c3.3-1.1,5.5-4.1,5.5-7.6v-64c0-4.4-3.6-8-8-8c-0.9,0-1.7,0.1-2.5,0.4l-11.3,3.8
		c-19.8-58.6-83.4-90.1-142-70.3c-29.3,9.9-53.2,31.5-66.1,59.7l-20.6,6.9c-3.3,1.1-5.5,4.1-5.5,7.6v64c0,4.4,3.6,8,8,8
		c0.9,0,1.7-0.1,2.5-0.4l11.3-3.8c19.8,58.6,83.4,90.1,142,70.3c29.3-9.9,53.2-31.5,66.1-59.7L378.5,295.6z M256,160
		c41.1,0,77.7,26.2,90.9,65.1c-29.1,8.3-60.3,5.3-87.3-8.3c-26.1-13.1-55.7-17.6-84.4-12.6C192.8,176.6,223.3,159.9,256,160z
		 M144,229.8l15.6-5.2c30.6-10.3,64-7.9,92.8,6.6c32.6,16.4,70.4,19.1,105,7.5l10.6-3.5v47.1l-15.6,5.2c-30.6,10.3-64,7.9-92.8-6.6
		c-32.6-16.4-70.4-19.1-105-7.5l-10.6,3.5V229.8z M256,352c-41.1,0-77.7-26.2-90.9-65.1c29.1-8.3,60.3-5.3,87.3,8.3
		c26.1,13.2,55.7,17.6,84.5,12.6C319.3,335.4,288.7,352.1,256,352L256,352z"/>
	<path class="st0" d="M208,96h32v16h-32V96z"/>
	<path class="st0" d="M272,96h32v16h-32V96z"/>
	<path class="st0" d="M408,96h-72v16h64v64h16v-72C416,99.6,412.4,96,408,96C408,96,408,96,408,96z"/>
	<path class="st0" d="M400,208h16v32h-16V208z"/>
	<path class="st0" d="M400,272h16v32h-16V272z"/>
	<path class="st0" d="M400,400h-64v16h72c4.4,0,8-3.6,8-8c0,0,0,0,0,0v-72h-16V400z"/>
	<path class="st0" d="M272,400h32v16h-32V400z"/>
	<path class="st0" d="M208,400h32v16h-32V400z"/>
	<path class="st0" d="M112,336H96v72c0,4.4,3.6,8,8,8c0,0,0,0,0,0h72v-16h-64V336z"/>
	<path class="st0" d="M96,272h16v32H96V272z"/>
	<path class="st0" d="M96,208h16v32H96V208z"/>
	<path class="st0" d="M112,112h64V96h-72c-4.4,0-8,3.6-8,8c0,0,0,0,0,0v72h16V112z"/>
	<path class="st0" d="M72,104H24c-4.4,0-8,3.6-8,8c0,0,0,0,0,0v288c0,4.4,3.6,8,8,8c0,0,0,0,0,0h48c4.4,0,8-3.6,8-8c0,0,0,0,0,0V112
		C80,107.6,76.4,104,72,104C72,104,72,104,72,104z M32,392V120h32v16H48v16h16v16H48v16h16v16H48v16h16v16H48v16h16v16H48v16h16v16
		H48v16h16v16H48v16h16v16H48v16h16v16H32z"/>
	<path class="st0" d="M488,104h-32c-4.4,0-8,3.6-8,8c0,0,0,0,0,0v40h-16c-4.4,0-8,3.6-8,8c0,0,0,0,0,0v64h16v-56h8v208
		c0,1,0.2,2,0.6,3l16,40c1.6,4.1,6.3,6.1,10.4,4.5c2-0.8,3.6-2.4,4.5-4.5l16-40c0.4-0.9,0.6-2,0.6-3V112
		C496,107.6,492.4,104,488,104C488,104,488,104,488,104z M464,120h16v32h-16V120z M472,394.5l-8-20V168h16v206.5L472,394.5z"/>
</g>
</svg>
