<?xml version="1.0" encoding="iso-8859-1"?>
<!-- Generator: Adobe Illustrator 19.0.0, SVG Export Plug-In . SVG Version: 6.00 Build 0)  -->
<svg version="1.1" id="Capa_1" xmlns="http://www.w3.org/2000/svg" xmlns:xlink="http://www.w3.org/1999/xlink" x="0px" y="0px"
	 viewBox="0 0 512 512" style="enable-background:new 0 0 512 512;" xml:space="preserve">
<path style="fill:#88A5A0;" d="M351.569,486.5H160.433c-7.714,0-11.037-9.808-4.894-14.481
	c14.985-11.379,24.793-25.599,31.198-39.234c11.702-24.854,12.105-47.713,12.105-47.713h114.319c0,0,0.403,22.859,12.105,47.713
	c6.405,13.635,16.213,27.855,31.198,39.234C362.606,476.692,359.283,486.5,351.569,486.5z"/>
<path style="fill:#718987;" d="M321.215,423.133c-7.746-20.817-8.054-38.061-8.054-38.061H198.842c0,0-0.309,17.245-8.054,38.061
	H321.215z"/>
<path style="fill:#72F2EB;" d="M511.99,63.437v277.139H0V63.437C0,42.476,16.976,25.5,37.926,25.5h436.138
	C495.013,25.5,511.99,42.476,511.99,63.437z"/>
<rect y="317.89" style="fill:#14C4BB;" width="511.99" height="22.684"/>
<polygon style="fill:#FF6A66;" points="279.178,88.013 279.178,333.648 102.394,333.648 102.394,143.209 "/>
<g>
	<polygon style="fill:#FF433E;" points="279.178,88.013 279.178,121.061 102.394,182.544 102.394,143.209 	"/>
	<polyline style="fill:#FF433E;" points="102.394,333.652 102.394,317.895 279.178,317.895 279.178,333.652 	"/>
</g>
<path style="fill:#007070;" d="M226.527,333.654h-71.479v-78.505c0-4.295,3.482-7.776,7.776-7.776h55.926
	c4.295,0,7.776,3.482,7.776,7.776L226.527,333.654L226.527,333.654z"/>
<path style="fill:#88A5A0;" d="M495.216,404.588H16.786c-9.27,0-16.784-7.514-16.784-16.784v-54.15H512v54.15
	C512,397.073,504.486,404.588,495.216,404.588z"/>
<circle style="fill:#14C4BB;" cx="256" cy="369.12" r="11.51"/>
<g>
	<path style="fill:#DCF9F7;" d="M356.883,230.083c-4.267,0-7.726-3.459-7.726-7.726v-1.572c0-4.268,3.459-7.726,7.726-7.726
		s7.726,3.459,7.726,7.726v1.572C364.61,226.625,361.15,230.083,356.883,230.083z"/>
	<path style="fill:#DCF9F7;" d="M381.232,230.083c-4.267,0-7.726-3.459-7.726-7.726v-1.572c0-4.268,3.459-7.726,7.726-7.726
		s7.726,3.459,7.726,7.726v1.572C388.959,226.625,385.5,230.083,381.232,230.083z"/>
</g>
<g>
	<path style="fill:#14C4BB;" d="M393.671,258.609h-36.612c-4.267,0-7.726-3.459-7.726-7.726c0-4.268,3.459-7.726,7.726-7.726h36.612
		c4.267,0,7.726,3.459,7.726,7.726C401.397,255.15,397.938,258.609,393.671,258.609z"/>
	<path style="fill:#14C4BB;" d="M444.337,281.687h-87.278c-4.267,0-7.726-3.459-7.726-7.726s3.459-7.726,7.726-7.726h87.278
		c4.267,0,7.726,3.459,7.726,7.726S448.604,281.687,444.337,281.687z"/>
</g>
<path style="fill:#007070;" d="M201.757,215.101h-21.94c-4.295,0-7.776-3.482-7.776-7.776v-21.94c0-4.295,3.482-7.776,7.776-7.776
	h21.94c4.295,0,7.776,3.482,7.776,7.776v21.94C209.534,211.619,206.052,215.101,201.757,215.101z"/>
<path style="fill:#14C4BB;" d="M372.225,181.419c-12.72,0-23.068-10.348-23.068-23.067c0-12.719,10.348-23.067,23.068-23.067
	s23.068,10.348,23.068,23.067C395.293,171.071,384.945,181.419,372.225,181.419z M372.225,150.737c-4.199,0-7.615,3.415-7.615,7.615
	c0,4.199,3.416,7.615,7.615,7.615s7.615-3.415,7.615-7.615C379.84,154.153,376.424,150.737,372.225,150.737z"/>
<path style="fill:#DCF9F7;" d="M326.442,87.925L66.193,178.442c-4.367,1.519-9.138-0.79-10.657-5.157l-5.561-15.987
	c-1.519-4.367,0.79-9.138,5.157-10.657l260.249-90.517c4.367-1.519,9.138,0.79,10.657,5.157l5.561,15.987
	C333.118,81.635,330.809,86.406,326.442,87.925z"/>
<g>
</g>
<g>
</g>
<g>
</g>
<g>
</g>
<g>
</g>
<g>
</g>
<g>
</g>
<g>
</g>
<g>
</g>
<g>
</g>
<g>
</g>
<g>
</g>
<g>
</g>
<g>
</g>
<g>
</g>
</svg>
