<?xml version="1.0" encoding="utf-8"?>
<!-- Generator: Adobe Illustrator 24.3.0, SVG Export Plug-In . SVG Version: 6.00 Build 0)  -->
<svg version="1.1" id="Capa_1" xmlns="http://www.w3.org/2000/svg" xmlns:xlink="http://www.w3.org/1999/xlink" x="0px" y="0px"
	 viewBox="0 0 512 512" style="enable-background:new 0 0 512 512;" xml:space="preserve">
<style type="text/css">
	.st0{fill:#6EA2FA;}
</style>
<g>
	<path class="st0" d="M58.7,71.7c-4.1,0-7.5,3.4-7.5,7.5s3.4,7.5,7.5,7.5H69c4.1,0,7.5-3.4,7.5-7.5s-3.4-7.5-7.5-7.5H58.7z"/>
	<path class="st0" d="M109.7,71.7c-4.1,0-7.5,3.4-7.5,7.5s3.4,7.5,7.5,7.5H120c4.1,0,7.5-3.4,7.5-7.5s-3.4-7.5-7.5-7.5H109.7z"/>
	<path class="st0" d="M170.9,86.7c4.1,0,7.5-3.4,7.5-7.5s-3.4-7.5-7.5-7.5h-10.3c-4.1,0-7.5,3.4-7.5,7.5s3.4,7.5,7.5,7.5H170.9z"/>
	<path class="st0" d="M368.1,302.7c2.9,2.9,7.7,2.9,10.6,0c2.9-2.9,2.9-7.7,0-10.6L240.6,154c-2.9-2.9-7.7-2.9-10.6,0
		c-2.9,2.9-2.9,7.7,0,10.6l2.4,2.4l-16.7,40.4c-2.9-2.2-7.2-2-9.8,0.7c-2.9,2.9-2.9,7.7,0,10.6l3.7,3.7l-13,31.5l-56.3,56.3
		c-8.3,8.3-8.3,21.8,0,30.1l1,1l-5.3,5.3l0,0c-2.9-2.9-7.7-2.9-10.6,0c-2.9,2.9-2.9,7.7,0,10.6l0.5,0.5c-9.2,13.8-7.8,32.6,4.4,44.8
		c6.9,6.9,16,10.4,25.1,10.4c6.9,0,13.8-2,19.7-6l0.5,0.5c1.5,1.5,3.4,2.2,5.3,2.2c1.9,0,3.8-0.7,5.3-2.2c2.9-2.9,2.9-7.7,0-10.6
		l0,0l5.3-5.3l1,1c4.1,4.1,9.6,6.2,15,6.2c5.4,0,10.9-2.1,15-6.2l1-1l19.8,19.8c2.9,2.9,7.7,2.9,10.6,0c2.9-2.9,2.9-7.7,0-10.6
		l-19.8-19.8l23.8-23.7l15.5,15.5c0.1,0.1,0.2,0.3,0.1,0.4l-3.9,10.7c-2,5.6-0.6,11.9,3.6,16.2l21.7,21.7c1.9,1.9,1.9,5.1,0,7l-3,3
		c-1.9,1.9-5.1,1.9-7,0l-9.8-9.8c-2.9-2.9-7.7-2.9-10.6,0c-2.9,2.9-2.9,7.7,0,10.6l9.8,9.8c7.8,7.8,20.4,7.8,28.2,0l3-3
		c7.8-7.8,7.8-20.4,0-28.2l-21.7-21.7c-0.1-0.1-0.2-0.3-0.1-0.4l3.9-10.7c2-5.6,0.6-11.9-3.6-16.2l-15.5-15.5l10.3-10.3l31.5-13
		l3.7,3.7c2.9,2.9,7.7,2.9,10.6,0c2.7-2.7,2.9-6.9,0.7-9.8l40.4-16.7L368.1,302.7z M191.2,301C191.2,301,191.2,301,191.2,301
		l-13.1,13.1c-1.9,1.9-4.9,1.9-6.8,0l-6.8-6.8l19.9-19.9l6.8,6.8C193.1,296,193.1,299.1,191.2,301L191.2,301z M140.9,391.8
		c-3.9-3.9-6-9-6-14.4c0-3.1,0.7-6,2-8.7l27.2,27.2C156.5,399.4,147.1,398.1,140.9,391.8z M180.8,380.8l-5.3,5.3l-28.9-28.9l5.3-5.3
		C162,362,170.7,370.7,180.8,380.8z M203,381.8c-14.2-14.2-43.9-43.9-52.1-52.1c-2.4-2.4-2.4-6.4,0-8.8l3-3l6.8,6.8
		c7.7,7.7,20.3,7.7,28,0l13.1-13.1c7.7-7.7,7.7-20.3,0-28l-6.8-6.8l8-8l61,61l-45.7,45.7c0,0,0,0,0,0s0,0,0,0l-6.3,6.3
		C209.4,384.2,205.5,384.2,203,381.8L203,381.8z M276.3,320.9c-7.7-7.7-56.8-56.8-64.5-64.5l9.3-22.5l77.7,77.7L276.3,320.9z
		 M313.8,305.4l-86.5-86.6l16.6-40.4l110.3,110.3L313.8,305.4z"/>
	<path class="st0" d="M344.3,177.8l-20.1,20.1c-2.9,2.9-2.9,7.7,0,10.6c2.9,2.9,7.7,2.9,10.6,0l20.1-20.1c2.9-2.9,2.9-7.7,0-10.6
		C352,174.9,347.2,174.9,344.3,177.8z"/>
	<path class="st0" d="M297.7,175.9v-28.4c0-4.1-3.4-7.5-7.5-7.5s-7.5,3.4-7.5,7.5v28.4c0,4.1,3.4,7.5,7.5,7.5
		S297.7,180.1,297.7,175.9z"/>
	<path class="st0" d="M348.7,242.7c0,4.1,3.4,7.5,7.5,7.5h28.4c4.1,0,7.5-3.4,7.5-7.5s-3.4-7.5-7.5-7.5h-28.4
		C352.1,235.2,348.7,238.6,348.7,242.7z"/>
	<path class="st0" d="M122.3,175.9c0-4.1-3.4-7.5-7.5-7.5H50.6c-4.1,0-7.5,3.4-7.5,7.5s3.4,7.5,7.5,7.5h64.2
		C118.9,183.4,122.3,180.1,122.3,175.9z"/>
	<path class="st0" d="M50.6,205.9c-4.1,0-7.5,3.4-7.5,7.5s3.4,7.5,7.5,7.5h44.2c4.1,0,7.5-3.4,7.5-7.5s-3.4-7.5-7.5-7.5H50.6z"/>
	<path class="st0" d="M456,365.5H349.6c-4.1,0-7.5,3.4-7.5,7.5s3.4,7.5,7.5,7.5H456c4.1,0,7.5-3.4,7.5-7.5S460.2,365.5,456,365.5z"
		/>
	<path class="st0" d="M456,398.6h-66.4c-4.1,0-7.5,3.4-7.5,7.5s3.4,7.5,7.5,7.5H456c4.1,0,7.5-3.4,7.5-7.5S460.2,398.6,456,398.6z"
		/>
	<path class="st0" d="M460.7,33.7h-300c-4.1,0-7.5,3.4-7.5,7.5s3.4,7.5,7.5,7.5h300c20,0,36.3,16.3,36.3,36.3v24.7H15V85
		c0-20,16.3-36.3,36.3-36.3h79.3c4.1,0,7.5-3.4,7.5-7.5s-3.4-7.5-7.5-7.5H51.3C23,33.7,0,56.7,0,85v342c0,28.3,23,51.3,51.3,51.3
		h409.3c28.3,0,51.3-23,51.3-51.3v-18.6c0-4.1-3.4-7.5-7.5-7.5s-7.5,3.4-7.5,7.5V427c0,20-16.3,36.3-36.3,36.3H51.3
		C31.3,463.3,15,447,15,427V124.7h482v253.7c0,4.1,3.4,7.5,7.5,7.5s7.5-3.4,7.5-7.5V85C512,56.7,489,33.7,460.7,33.7z"/>
</g>
</svg>
