<?xml version="1.0" encoding="utf-8"?>
<!-- Generator: Adobe Illustrator 24.3.0, SVG Export Plug-In . SVG Version: 6.00 Build 0)  -->
<svg version="1.1" id="Layer_3" xmlns="http://www.w3.org/2000/svg" xmlns:xlink="http://www.w3.org/1999/xlink" x="0px" y="0px"
	 viewBox="0 0 512 512" style="enable-background:new 0 0 512 512;" xml:space="preserve">
<style type="text/css">
	.st0{fill:#6EA2FA;}
</style>
<path class="st0" d="M464,8h-64c-12.5,0-24.5,6-32,16l-12,16H48C25.9,40,8,57.9,8,80v256c0,22.1,17.9,40,40,40h168v88
	c0,22.1,17.9,40,40,40h16c22.1,0,40-17.9,40-40v-88h45.7l-5.6,78c-0.1,1.1-0.1,2.2-0.1,3.4c0,25.7,20.9,46.6,46.6,46.6h2.8
	c25.7,0,46.6-20.9,46.6-46.6c0-1.1,0-2.2-0.1-3.3l-5.6-78.1H464c22.1,0,40-17.9,40-40V48C504,25.9,486.1,8,464,8z M48,56h316
	l16.8-22.4c4.5-6,11.7-9.6,19.2-9.6h64c13.2,0,24,10.8,24,24v24H25.5C28.8,62.7,37.6,56,48,56L48,56z M280,296h-32V155.3l16-16
	l16,16V296z M312,312v16h-96v-16H312z M272,488h-16c-13.2,0-24-10.8-24-24V344h64v120C296,477.2,285.2,488,272,488z M401.4,488h-2.8
	c-16.9,0-30.6-13.7-30.6-30.6c0-0.7,0-1.4,0.1-2.2l15-209.5l-5.2-2.2c-20.6-8.9-33.8-29.1-33.8-51.4c0-18.7,9.1-35.6,24-46v47.8
	l0.8,1.7c0.4,0.8,10.5,20.4,31.2,20.4s30.7-19.6,31.2-20.4l0.8-1.7v-47.8c14.9,10.3,24,27.3,24,46c0,22.4-13.3,42.5-33.8,51.4
	l-5.2,2.2l15,209.6c0.1,0.7,0.1,1.4,0.1,2.1C432,474.3,418.3,488,401.4,488L401.4,488z M464,360h-22.8l-7.4-104.4
	c23.4-12.4,38.3-36.8,38.3-63.6c0-29.5-17.7-55.6-45-66.7l-11-4.5v69c-2,3.1-7.6,10.2-16,10.2c-8.4,0-14-7.1-16-10.2v-69l-11,4.5
	c-27.3,11.1-45,37.3-45,66.7c0,26.8,14.8,51.2,38.3,63.6L358.8,360H312v-16h16v-48h-32V148.7l-32-32l-32,32V296h-32v48h16v16H48
	c-13.2,0-24-10.8-24-24V88h464v248C488,349.2,477.2,360,464,360z"/>
<path class="st0" d="M456,40h16v16h-16V40z"/>
<path class="st0" d="M424,40h16v16h-16V40z"/>
<path class="st0" d="M392,40h16v16h-16V40z"/>
<path class="st0" d="M394.3,458.9c-3.1,3.1-3.1,8.2,0,11.3c3.1,3.1,8.2,3.1,11.3,0c3.1-3.1,3.1-8.2,0-11.3
	C402.5,455.8,397.4,455.8,394.3,458.9z"/>
<path class="st0" d="M40,328h80v16H40V328z"/>
<path class="st0" d="M40,296h80v16H40V296z"/>
<path class="st0" d="M256,360h16v16h-16V360z"/>
<path class="st0" d="M256,392h16v16h-16V392z"/>
<path class="st0" d="M256,424h16v16h-16V424z"/>
<path class="st0" d="M40,152h16v16H40v48h16v16H40v48h176v-48h-16v-16h16v-48h-16v-16h16v-48H40V152z M200,264H56v-16h144V264z
	 M184,232H72v-16h112V232z M200,200H56v-16h144V200z M184,168H72v-16h112V168z M56,120h144v16H56V120z"/>
</svg>
