<svg id="Layer_3" enable-background="new 0 0 64 64" height="512" viewBox="0 0 64 64" width="512" xmlns="http://www.w3.org/2000/svg"><path d="m58 1h-8c-1.565 0-3.061.748-4 2l-1.5 2h-38.5c-2.757 0-5 2.243-5 5v32c0 2.757 2.243 5 5 5h21v11c0 2.757 2.243 5 5 5h2c2.757 0 5-2.243 5-5v-11h5.712l-.696 9.751c-.011.141-.016.281-.016.421 0 3.214 2.614 5.828 5.828 5.828h.344c3.214 0 5.828-2.614 5.828-5.828 0-.14-.005-.28-.016-.415l-.696-9.757h2.712c2.757 0 5-2.243 5-5v-36c0-2.757-2.243-5-5-5zm-52 6h39.5l2.1-2.8c.564-.751 1.461-1.2 2.4-1.2h8c1.654 0 3 1.346 3 3v3h-57.816c.414-1.161 1.514-2 2.816-2zm29 30h-4v-17.586l2-2 2 2zm4 2v2h-12v-2zm-5 22h-2c-1.654 0-3-1.346-3-3v-15h8v15c0 1.654-1.346 3-3 3zm16.172 0h-.344c-2.11 0-3.828-1.718-3.828-3.828 0-.089.003-.179.01-.272l1.87-26.19-.651-.281c-2.569-1.111-4.229-3.634-4.229-6.429 0-2.333 1.14-4.455 3-5.744v5.979l.105.211c.052.105 1.307 2.554 3.895 2.554s3.843-2.449 3.895-2.553l.105-.211v-5.979c1.86 1.289 3 3.411 3 5.744 0 2.795-1.66 5.318-4.229 6.428l-.651.281 1.87 26.196c.007.088.01.178.01.267 0 2.109-1.718 3.827-3.828 3.827zm7.828-16h-2.855l-.931-13.048c2.93-1.552 4.786-4.6 4.786-7.952 0-3.682-2.208-6.956-5.624-8.34l-1.376-.557v8.625c-.254.388-.948 1.272-2 1.272-1.054 0-1.748-.887-2-1.272v-8.625l-1.376.558c-3.416 1.383-5.624 4.657-5.624 8.339 0 3.352 1.856 6.4 4.786 7.952l-.931 13.048h-5.855v-2h2v-6h-4v-18.414l-4-4-4 4v18.414h-4v6h2v2h-21c-1.654 0-3-1.346-3-3v-31h58v31c0 1.654-1.346 3-3 3z"/><path d="m57 5h2v2h-2z"/><path d="m53 5h2v2h-2z"/><path d="m49 5h2v2h-2z"/><path d="m49.287 57.359c-.391.391-.391 1.024 0 1.414.391.391 1.024.391 1.414 0 .391-.391.391-1.024 0-1.414-.39-.39-1.023-.39-1.414 0z"/><path d="m5 41h10v2h-10z"/><path d="m5 37h10v2h-10z"/><path d="m32 45h2v2h-2z"/><path d="m32 49h2v2h-2z"/><path d="m32 53h2v2h-2z"/><path d="m5 19h2v2h-2v6h2v2h-2v6h22v-6h-2v-2h2v-6h-2v-2h2v-6h-22zm20 14h-18v-2h18zm-2-4h-14v-2h14zm2-4h-18v-2h18zm-2-4h-14v-2h14zm-16-6h18v2h-18z"/></svg>