<?xml version="1.0" encoding="utf-8"?>
<!-- Generator: Adobe Illustrator 24.3.0, SVG Export Plug-In . SVG Version: 6.00 Build 0)  -->
<svg version="1.1" id="Layer_1" xmlns="http://www.w3.org/2000/svg" xmlns:xlink="http://www.w3.org/1999/xlink" x="0px" y="0px"
	 viewBox="0 0 512 512" style="enable-background:new 0 0 512 512;" xml:space="preserve">
<style type="text/css">
	.st0{fill:#6EA2FA;}
</style>
<path class="st0" d="M147.6,118.7l24,16c3.7,2.5,8.6,1.5,11.1-2.2c2.5-3.7,1.5-8.6-2.2-11.1l-14-9.3l14-9.3
	c3.7-2.5,4.7-7.4,2.2-11.1c-2.5-3.7-7.4-4.7-11.1-2.2l0,0l-24,16c-3.7,2.5-4.7,7.4-2.2,11.1C145.9,117.3,146.7,118.1,147.6,118.7
	L147.6,118.7z"/>
<path class="st0" d="M233.3,132.4c2.5,3.7,7.4,4.7,11.1,2.2c0,0,0,0,0,0l24-16c3.7-2.5,4.7-7.4,2.2-11.1c-0.6-0.9-1.3-1.6-2.2-2.2
	l-24-16c-3.7-2.5-8.6-1.5-11.1,2.2c-2.5,3.7-1.5,8.6,2.2,11.1l14,9.3l-14,9.3C231.9,123.8,230.9,128.8,233.3,132.4
	C233.3,132.4,233.3,132.4,233.3,132.4L233.3,132.4z"/>
<path class="st0" d="M197.5,143.6c4.2,1.4,8.7-0.9,10.1-5.1l16-48c1.4-4.2-0.9-8.7-5.1-10.1c-4.2-1.4-8.7,0.9-10.1,5.1l0,0l-16,48
	C191,137.7,193.3,142.2,197.5,143.6C197.5,143.6,197.5,143.6,197.5,143.6z"/>
<path class="st0" d="M152,152h48v16h-48V152z"/>
<path class="st0" d="M216,152h16v16h-16V152z"/>
<path class="st0" d="M184,176h96v16h-96V176z"/>
<path class="st0" d="M328,176h72v16h-72V176z"/>
<path class="st0" d="M184,200h16v16h-16V200z"/>
<path class="st0" d="M216,200h96v16h-96V200z"/>
<path class="st0" d="M328,200h32v16h-32V200z"/>
<path class="st0" d="M240,224h48v16h-48V224z"/>
<path class="st0" d="M304,224h16v16h-16V224z"/>
<path class="st0" d="M296,176h16v16h-16V176z"/>
<path class="st0" d="M488,384H350.5c0.9-2.6,1.4-5.3,1.5-8c0-13.3-10.7-24-24-24h-26.2l-10.7-32H408c22.1,0,40-17.9,40-40V56
	c0-22.1-17.9-40-40-40H104c-22.1,0-40,17.9-40,40v168H24c-4.4,0-8,3.6-8,8v256c0,4.4,3.6,8,8,8h192c4.4,0,8-3.6,8-8v-88h16v88
	c0,4.4,3.6,8,8,8h240c4.4,0,8-3.6,8-8v-96C496,387.6,492.4,384,488,384z M284.9,352H224v-32h50.2L284.9,352z M408,304H224v-32h208v8
	C432,293.3,421.3,304,408,304z M104,32h304c10.1,0,19.1,6.4,22.5,16H81.5C84.9,38.4,93.9,32,104,32L104,32z M80,64h352v192H224v-24
	c0-4.4-3.6-8-8-8h-88V96c0-4.4-3.6-8-8-8s-8,3.6-8,8v128H80V64z M208,480H32V240h176V480z M224,368h104c4.4,0,8,3.6,8,8s-3.6,8-8,8
	H224V368z M480,480H256v-80h224V480z"/>
<path class="st0" d="M288,408h16v16h-16V408z"/>
<path class="st0" d="M312,408h16v16h-16V408z"/>
<path class="st0" d="M336,408h16v16h-16V408z"/>
<path class="st0" d="M360,408h16v16h-16V408z"/>
<path class="st0" d="M384,408h16v16h-16V408z"/>
<path class="st0" d="M408,408h16v16h-16V408z"/>
<path class="st0" d="M432,408h16v16h-16V408z"/>
<path class="st0" d="M288,432h16v16h-16V432z"/>
<path class="st0" d="M312,432h16v16h-16V432z"/>
<path class="st0" d="M336,432h16v16h-16V432z"/>
<path class="st0" d="M360,432h16v16h-16V432z"/>
<path class="st0" d="M384,432h16v16h-16V432z"/>
<path class="st0" d="M408,432h16v16h-16V432z"/>
<path class="st0" d="M432,432h16v16h-16V432z"/>
<path class="st0" d="M288,456h16v16h-16V456z"/>
<path class="st0" d="M312,456h112v16H312V456z"/>
<path class="st0" d="M432,456h16v16h-16V456z"/>
<path class="st0" d="M456,408h16v16h-16V408z"/>
<path class="st0" d="M456,432h16v16h-16V432z"/>
<path class="st0" d="M456,456h16v16h-16V456z"/>
<path class="st0" d="M264,408h16v16h-16V408z"/>
<path class="st0" d="M264,432h16v16h-16V432z"/>
<path class="st0" d="M264,456h16v16h-16V456z"/>
<path class="st0" d="M140,288c11,0,20-9,20-20s-9-20-20-20h-40c-11,0-20,9-20,20s9,20,20,20h12v19.1l-27.6,13.7
	c-4,2-5.6,6.8-3.6,10.7c0.8,1.6,2,2.8,3.6,3.6l27.6,13.8V368H88c-4.4,0-8,3.6-8,8v32c0,4.4,3.6,8,8,8h24v16h-12c-11,0-20,9-20,20
	s9,20,20,20h40c11,0,20-9,20-20s-9-20-20-20h-12v-16h24c4.4,0,8-3.6,8-8v-32c0-4.4-3.6-8-8-8h-24v-19.1l27.6-13.7
	c4-2,5.6-6.8,3.6-10.7c-0.8-1.6-2-2.8-3.6-3.6L128,307.1V288H140z M144,452c0,2.2-1.8,4-4,4h-40c-2.2,0-4-1.8-4-4s1.8-4,4-4h40
	C142.2,448,144,449.8,144,452z M144,384v16H96v-16H144z M120,335.1l-14.1-7.1l14.1-7.1l14.1,7.1L120,335.1z M96,268c0-2.2,1.8-4,4-4
	h40c2.2,0,4,1.8,4,4s-1.8,4-4,4h-40C97.8,272,96,270.2,96,268z"/>
</svg>
